<?xml version="1.0" encoding="utf-8"?>
<!-- Generator: Adobe Illustrator 22.0.1, SVG Export Plug-In . SVG Version: 6.00 Build 0)  -->
<svg version="1.1" id="Calque_1" xmlns="http://www.w3.org/2000/svg" xmlns:xlink="http://www.w3.org/1999/xlink" x="0px" y="0px"
	 viewBox="0 0 100 100" style="enable-background:new 0 0 100 100;" xml:space="preserve">
<style type="text/css">
	.st0{fill:none;stroke:#000000;stroke-miterlimit:10;}
	.st1{fill:none;stroke:#191918;stroke-width:0.25;stroke-miterlimit:10;}
	.st2{fill:none;stroke:#000000;stroke-width:0.25;stroke-miterlimit:10;}
	.st3{fill:none;stroke:#000000;stroke-width:0.5;stroke-miterlimit:10;}
</style>
<polygon points="-96.2,25.9 -90.9,2.3 -91,26.5 -80.8,4.6 -86.1,28.2 -71.4,9 -81.7,30.9 -63.2,15.3 -78,34.5 -56.5,23.2 
	-75.1,38.8 -51.7,32.4 -73.2,43.6 -49,42.4 -72.4,48.7 -48.5,52.7 -72.7,53.9 -50.2,62.9 -74.1,58.8 -54.1,72.5 -76.5,63.4 -60,81 
	-79.9,67.3 -67.5,88.1 -84,70.4 -76.4,93.4 -88.8,72.6 -86.2,96.7 -93.8,73.7 -96.5,97.7 -99,73.7 -106.8,96.6 -104,72.5 
	-116.6,93.2 -108.7,70.3 -125.4,87.8 -112.8,67.2 -132.9,80.7 -116.2,63.2 -138.7,72.1 -118.6,58.6 -142.5,62.5 -119.9,53.6 
	-144.1,52.2 -120.2,48.5 -143.5,41.9 -119.3,43.4 -140.7,31.9 -117.4,38.6 -135.8,22.8 -114.5,34.3 -129,15 -110.7,30.7 -120.8,8.7 
	-106.2,28.1 -111.4,4.4 -101.3,26.5 -101.2,2.3 "/>
<path class="st0" d="M209.6,63.5h-67.2c0,0-2.7-16.4,9.3-28.3c0,0,8.4-10,24.2-10.3s25.4,11.2,25.4,11.2S211.4,44.8,209.6,63.5z"/>
<path d="M84.2,60.8c0,0-7.4-21.3-31.4-21.5S21,60.8,21,60.8H84.2z"/>
<path class="st1" d="M19.5-178.2c0,0,0.9-2.5,3.1-5.3H78c0,0,2,2.8,3.1,5.3H19.5z"/>
<path class="st2" d="M80.2,186.6H20.3c0,0-4-7-4-16c0-8.9,3.8-19.6,13.3-27c9.5-7.4,20.6-7,20.6-7s10.4,0,18,5.2
	s15.9,13.8,15.9,28.8C84.2,170.6,84.3,179.6,80.2,186.6z"/>
<path class="st2" d="M81.1,259.1c0,0-7.4-21.3-31.4-21.5c-24-0.2-31.8,21.5-31.8,21.5H81.1z"/>
<line class="st3" x1="21.1" y1="328.9" x2="82.6" y2="328.9"/>
</svg>
