<?xml version="1.0" encoding="utf-8"?>
<!-- Generator: Adobe Illustrator 22.0.1, SVG Export Plug-In . SVG Version: 6.00 Build 0)  -->
<svg version="1.1" id="Calque_1" xmlns="http://www.w3.org/2000/svg" xmlns:xlink="http://www.w3.org/1999/xlink" x="0px" y="0px"
	 viewBox="0 0 100 100" style="enable-background:new 0 0 100 100;" xml:space="preserve">
<style type="text/css">
	.st0{fill:none;stroke:#000000;stroke-width:0.25;stroke-miterlimit:10;}
	.st1{fill:none;stroke:#191918;stroke-width:0.25;stroke-miterlimit:10;}
	.st2{fill:none;stroke:#000000;stroke-width:0.5;stroke-miterlimit:10;}
</style>
<polygon points="50.4,26.9 55.7,3.3 55.5,27.5 65.8,5.5 60.4,29.1 75.1,9.9 64.8,31.8 83.4,16.2 68.6,35.4 90,24.1 71.5,39.7 
	94.8,33.3 73.4,44.5 97.5,43.3 74.2,49.6 98.1,53.6 73.9,54.8 96.3,63.8 72.5,59.8 92.5,73.4 70,64.3 86.6,82 66.6,68.3 79.1,89.1 
	62.5,71.4 70.2,94.4 57.8,73.5 60.3,97.6 52.7,74.6 50,98.7 47.6,74.6 39.8,97.5 42.5,73.5 30,94.2 37.8,71.3 21.1,88.8 33.7,68.1 
	13.6,81.6 30.4,64.2 7.9,73 28,59.6 4.1,63.4 26.6,54.6 2.5,53.2 26.4,49.4 3.1,42.8 27.2,44.3 5.9,32.9 29.2,39.5 10.8,23.8 
	32.1,35.2 17.5,15.9 35.9,31.7 25.8,9.7 40.3,29.1 35.2,5.4 45.2,27.4 45.3,3.2 "/>
<path class="st0" d="M83.9-37.2H16.7c0,0-2.7-16.4,9.3-28.3c0,0,8.4-10,24.2-10.3c15.8-0.3,25.4,11.2,25.4,11.2S85.8-55.9,83.9-37.2
	z"/>
<path class="st0" d="M81.9-116.3c0,0-7.4-21.3-31.4-21.5s-31.8,21.5-31.8,21.5H81.9z"/>
<path class="st1" d="M19.5-178.2c0,0,0.9-2.5,3.1-5.3H78c0,0,2,2.8,3.1,5.3H19.5z"/>
<path class="st0" d="M80.2,186.6H20.3c0,0-4-7-4-16c0-8.9,3.8-19.6,13.3-27c9.5-7.4,20.6-7,20.6-7s10.4,0,18,5.2
	s15.9,13.8,15.9,28.8C84.2,170.6,84.3,179.6,80.2,186.6z"/>
<path class="st0" d="M81.1,259.1c0,0-7.4-21.3-31.4-21.5c-24-0.2-31.8,21.5-31.8,21.5H81.1z"/>
<line class="st2" x1="21.1" y1="328.9" x2="82.6" y2="328.9"/>
</svg>
